<?xml version="1.0" encoding="UTF-8" standalone="no" ?>
<!DOCTYPE svg PUBLIC "-//W3C//DTD SVG 1.1//EN" "http://www.w3.org/Graphics/SVG/1.1/DTD/svg11.dtd">
<svg xmlns="http://www.w3.org/2000/svg" xmlns:xlink="http://www.w3.org/1999/xlink" version="1.1" width="128" height="128" viewBox="0 0 128 128" xml:space="preserve">
<desc>Created with Fabric.js 5.3.0</desc>
<defs>
</defs>
<g transform="matrix(1.7991571672 0 0 2.2440476483 64 30.0242558364)" id="DmMULG6Sm8YRAN6LEqFTL"  >
<path style="stroke: rgb(163,243,211); stroke-width: 0; stroke-dasharray: none; stroke-linecap: butt; stroke-dashoffset: 0; stroke-linejoin: miter; stroke-miterlimit: 4; fill: rgb(44,201,133); fill-rule: nonzero; opacity: 1;"  transform=" translate(0, 0)" d="M -31.40022 -4.80662 C -31.40022 -5.42552 -30.774440000000002 -5.92723 -30.0025 -5.92723 L 30.002509999999997 -5.92723 L 30.002509999999997 -5.92723 C 30.774449999999998 -5.92723 31.400229999999997 -5.42551 31.400229999999997 -4.80662 L 31.400229999999997 4.80662 L 31.400229999999997 4.80662 C 31.400229999999997 5.42552 30.774449999999998 5.92723 30.002509999999997 5.92723 L -30.0025 5.92723 L -30.0025 5.92723 C -30.774440000000002 5.92723 -31.40022 5.42551 -31.40022 4.80662 z" stroke-linecap="round" />
</g>
<g transform="matrix(0 1.7991571672 -2.2440476483 0 97.8698975045 64.5799338959)" id="0NmNNmlzjnUy8DbSqRxzI"  >
<path style="stroke: rgb(163,243,211); stroke-width: 0; stroke-dasharray: none; stroke-linecap: butt; stroke-dashoffset: 0; stroke-linejoin: miter; stroke-miterlimit: 4; fill: rgb(44,201,133); fill-rule: nonzero; opacity: 1;"  transform=" translate(-0.000005, 0)" d="M -31.40022 -4.80662 C -31.40022 -5.42552 -30.774440000000002 -5.92723 -30.0025 -5.92723 L 30.002509999999997 -5.92723 L 30.002509999999997 -5.92723 C 30.774449999999998 -5.92723 31.400229999999997 -5.42551 31.400229999999997 -4.80662 L 31.400229999999997 4.80662 L 31.400229999999997 4.80662 C 31.400229999999997 5.42552 30.774449999999998 5.92723 30.002509999999997 5.92723 L -30.0025 5.92723 L -30.0025 5.92723 C -30.774440000000002 5.92723 -31.40022 5.42551 -31.40022 4.80662 z" stroke-linecap="round" />
</g>
<g transform="matrix(-1.7991571672 0 0 -2.2440476483 64.0000032673 99.1356119554)" id="FvHoZRlM3IPMr8Hc_0BuY"  >
<path style="stroke: rgb(163,243,211); stroke-width: 0; stroke-dasharray: none; stroke-linecap: butt; stroke-dashoffset: 0; stroke-linejoin: miter; stroke-miterlimit: 4; fill: rgb(44,201,133); fill-rule: nonzero; opacity: 1;"  transform=" translate(-0.000005, 0)" d="M -31.40022 -4.80662 C -31.40022 -5.42552 -30.774440000000002 -5.92723 -30.0025 -5.92723 L 30.002509999999997 -5.92723 L 30.002509999999997 -5.92723 C 30.774449999999998 -5.92723 31.400229999999997 -5.42551 31.400229999999997 -4.80662 L 31.400229999999997 4.80662 L 31.400229999999997 4.80662 C 31.400229999999997 5.42552 30.774449999999998 5.92723 30.002509999999997 5.92723 L -30.0025 5.92723 L -30.0025 5.92723 C -30.774440000000002 5.92723 -31.40022 5.42551 -31.40022 4.80662 z" stroke-linecap="round" />
</g>
<g transform="matrix(0 -1.7991571672 2.2440476483 0 30.1301057628 64.5799338959)" id="6TKZHdqsuV8A_pNso-q5M"  >
<path style="stroke: rgb(163,243,211); stroke-width: 0; stroke-dasharray: none; stroke-linecap: butt; stroke-dashoffset: 0; stroke-linejoin: miter; stroke-miterlimit: 4; fill: rgb(44,201,133); fill-rule: nonzero; opacity: 1;"  transform=" translate(-0.000005, 0)" d="M -31.40022 -4.80662 C -31.40022 -5.42552 -30.774440000000002 -5.92723 -30.0025 -5.92723 L 30.002509999999997 -5.92723 L 30.002509999999997 -5.92723 C 30.774449999999998 -5.92723 31.400229999999997 -5.42551 31.400229999999997 -4.80662 L 31.400229999999997 4.80662 L 31.400229999999997 4.80662 C 31.400229999999997 5.42552 30.774449999999998 5.92723 30.002509999999997 5.92723 L -30.0025 5.92723 L -30.0025 5.92723 C -30.774440000000002 5.92723 -31.40022 5.42551 -31.40022 4.80662 z" stroke-linecap="round" />
</g>
</svg>